<?xml version="1.0" encoding="UTF-8"?>
<svg xmlns="http://www.w3.org/2000/svg" version="1.1" viewBox="0 0 829 852">
  <defs>
    <style>
      .cls-1 {
        fill: #66f670;
      }

      .cls-2 {
        stroke-width: 4px;
      }

      .cls-2, .cls-3 {
        stroke: #000;
        stroke-miterlimit: 10;
      }

      .cls-3 {
        stroke-width: 3px;
      }

      .cls-4 {
        fill: #ededed;
      }
    </style>
  </defs>
  <!-- Generator: Adobe Illustrator 28.7.1, SVG Export Plug-In . SVG Version: 1.2.0 Build 142)  -->
  <g>
    <g id="_레이어_1" data-name="레이어_1">
      <rect class="cls-1" x="179.3" y="348.5" width="479.4" height="187.5"/>
      <g>
        <path class="cls-2" d="M178.9,318.8v-14.2l54-53.7c8.6-8.5,14.8-15.9,18.6-22.1,3.8-6.2,5.6-12.7,5.6-19.4s-2.6-13.5-7.7-17.8c-5.2-4.4-12.3-6.5-21.6-6.5s-15.3,2.7-20.5,8c-5.2,5.3-9.1,12.5-11.9,21.5l-17.3-4.2c3.3-11.9,9.1-21.8,17.6-29.7,8.4-7.9,19.1-11.9,32.1-11.9s17.7,1.6,24.8,4.8c7.1,3.2,12.6,7.9,16.6,13.9,3.9,6.1,5.9,13.2,5.9,21.3s-2.3,17.9-6.9,25.8c-4.6,7.9-11.8,16.6-21.5,26.2l-41.7,41.3h73.5v16.7h-99.7Z"/>
        <path class="cls-2" d="M434.6,318.8v-14.2l54-53.7c8.6-8.5,14.8-15.9,18.6-22.1,3.8-6.2,5.6-12.7,5.6-19.4s-2.6-13.5-7.7-17.8c-5.2-4.4-12.3-6.5-21.6-6.5s-15.3,2.7-20.5,8c-5.2,5.3-9.1,12.5-11.9,21.5l-17.3-4.2c3.3-11.9,9.1-21.8,17.6-29.7,8.4-7.9,19.1-11.9,32.1-11.9s17.7,1.6,24.8,4.8c7.1,3.2,12.6,7.9,16.6,13.9,3.9,6.1,5.9,13.2,5.9,21.3s-2.3,17.9-6.9,25.8c-4.6,7.9-11.8,16.6-21.5,26.2l-41.7,41.3h73.5v16.7h-99.7Z"/>
        <path class="cls-2" d="M558.7,318.8v-14.2l54-53.7c8.6-8.5,14.8-15.9,18.6-22.1,3.8-6.2,5.6-12.7,5.6-19.4s-2.6-13.5-7.7-17.8c-5.2-4.4-12.3-6.5-21.6-6.5s-15.3,2.7-20.5,8c-5.2,5.3-9.1,12.5-11.9,21.5l-17.3-4.2c3.3-11.9,9.1-21.8,17.6-29.7,8.4-7.9,19.1-11.9,32.1-11.9s17.7,1.6,24.8,4.8c7.1,3.2,12.6,7.9,16.6,13.9,3.9,6.1,5.9,13.2,5.9,21.3s-2.3,17.9-6.9,25.8c-4.6,7.9-11.8,16.6-21.5,26.2l-41.7,41.3h73.5v16.7h-99.7Z"/>
      </g>
      <g>
        <path class="cls-3" d="M204.2,491.7v-117h16.5v102h7.4c13.3,0,26.9-1,40.8-3.1l1.6,14.5c-7.3,1.3-14.5,2.3-21.7,2.8-7.2.5-14.9.8-23,.8h-21.6ZM248.7,426.6v-15h40.8v15h-40.8ZM281.9,513.5v-147.7h15.5v147.7h-15.5ZM315.9,516.6v-153.1h16v153.1h-16Z"/>
        <path class="cls-3" d="M394.2,496.7c-12.1,0-21.9-4.2-29.5-12.6-7.5-8.4-11.3-21.3-11.3-38.7v-23.3c0-17.4,3.8-30.3,11.3-38.7,7.5-8.4,17.4-12.6,29.5-12.6s21.7,4.2,29.2,12.6c7.5,8.4,11.2,21.3,11.2,38.7v23.3c0,17.4-3.7,30.3-11.2,38.7-7.5,8.4-17.2,12.6-29.2,12.6ZM394.2,481.7c7.3,0,13.1-2.9,17.5-8.8,4.4-5.9,6.6-15.1,6.6-27.6v-22.9c0-12.6-2.2-21.9-6.6-27.7-4.4-5.8-10.2-8.7-17.5-8.7s-13.3,2.9-17.7,8.7c-4.4,5.8-6.6,15.1-6.6,27.7v22.9c0,12.5,2.2,21.8,6.7,27.6,4.5,5.9,10.3,8.8,17.6,8.8ZM462.4,516.6v-153.1h16.5v153.1h-16.5Z"/>
        <path class="cls-3" d="M504.6,491.9v-118.6h16.3v103.6h43.4v-103.6h16.2v118.6h-75.9ZM512,431v-14.9h61v14.9h-61ZM574.9,437.6v-15h45.5v15h-45.5ZM612,516.6v-153.1h16.3v153.1h-16.3Z"/>
      </g>
      <path class="cls-4" d="M739.2,561.4c7.2,0,13.1,5.9,13.1,13.1v170.7c0,7.2-5.9,13.1-13.1,13.1H91.8c-7.2,0-13.1-5.9-13.1-13.1v-170.7c0-7.2,5.9-13.1,13.1-13.1h647.4M739.2,548.8H91.8c-14.2,0-25.8,11.5-25.8,25.8v170.7c0,14.2,11.5,25.8,25.8,25.8h647.4c14.2,0,25.8-11.5,25.8-25.8v-170.7c0-14.2-11.5-25.8-25.8-25.8h0Z"/>
      <g>
        <path class="cls-3" d="M167.6,667.9c-7.7,0-14.6-1.5-20.8-4.6-6.2-3.1-11-7.7-14.6-13.9-3.6-6.2-5.4-13.7-5.4-22.6v-3.1c0-9,1.8-16.6,5.4-22.9,3.6-6.2,8.4-10.8,14.6-13.9,6.2-3,13.1-4.5,20.8-4.5s14.4,1.5,20.5,4.5c6.1,3,10.9,7.6,14.5,13.9,3.6,6.2,5.4,13.8,5.4,22.9v3.1c0,8.9-1.8,16.4-5.4,22.6-3.6,6.2-8.4,10.8-14.5,13.9-6.1,3.1-13,4.6-20.5,4.6ZM167.6,653.3c7,0,12.8-2.3,17.2-6.9s6.7-11.3,6.7-20v-2.6c0-8.7-2.2-15.3-6.7-20-4.5-4.6-10.2-6.9-17.2-6.9s-13,2.3-17.5,6.9c-4.5,4.6-6.8,11.3-6.8,20v2.6c0,8.7,2.3,15.3,6.8,20,4.5,4.6,10.3,6.9,17.5,6.9ZM151,731.4v-49.7h16.5v34.6h91.2v15h-107.7ZM198.6,613.3v-13.4h45.5v13.4h-45.5ZM198.6,646.1v-13.4h45.5v13.4h-45.5ZM235.8,692.9v-114.7h16.5v114.7h-16.5Z"/>
        <path class="cls-3" d="M273.2,647.1v-62.4h74.4v62.4h-74.4ZM289.2,632.9h42.4v-33.8h-42.4v33.8ZM295,732.2v-42.1h81.5v-13.9h-82.3v-13.7h98.8v41.1h-81.7v14.5h87.3v14h-103.6ZM376.5,653v-74.7h16.5v74.7h-16.5ZM387.2,622.2v-15.2h29.5v15.2h-29.5Z"/>
        <path class="cls-3" d="M427.3,641.8c19-4.9,33.8-11.3,44.4-19.1,10.6-7.8,15.8-16.2,15.8-25.2v-4.3l5.8,7.1h-62.7v-14.7h73.3v7.8c0,15.5-6.1,28.4-18.2,38.5-12.2,10.2-29.7,18.3-52.7,24.3l-5.6-14.4ZM449.9,732.2v-42.1h84.8v-13.9h-85.6v-13.7h102.1v41.1h-84.8v14.5h90.4v14h-106.9ZM498.1,612.4v-13.4h45v13.4h-45ZM500.1,640.5v-13.4h43.1v13.4h-43.1ZM534.8,653v-74.7h16.5v74.7h-16.5Z"/>
        <path class="cls-3" d="M566.3,657.8c13.4-9,23.3-18.5,29.7-28.5,6.4-10,9.6-21.1,9.6-33.3v-11.9h16v11.9c0,15.2-3.8,28.8-11.3,40.9-7.5,12.1-19.1,23.3-34.7,33.7l-9.2-12.7ZM593.8,731.4v-48h16.5v33h89.6v15h-106.1ZM650.9,667.4l-47-36.8,9.9-11.9,46.5,36.3-9.4,12.4ZM675.5,692.9v-114.7h16.5v114.7h-16.5ZM686.2,631.6v-14.9h29.5v14.9h-29.5Z"/>
      </g>
      <g>
        <path d="M179.6,83.1v-35.4h17.4v4.6h-12.4v26.3h2c4.2,0,8.4-.3,12.5-1l.5,4.5c-2.1.4-4.3.7-6.5.8-2.2.2-4.6.2-7.3.2h-6.3ZM193.1,66.3v-4.5h12.3v4.5h-12.3ZM203.4,89.7v-44.8h4.7v44.8h-4.7ZM213.5,90.7v-46.4h4.9v46.4h-4.9Z"/>
        <path d="M237.2,84.6c-3.7,0-6.6-1.3-8.9-3.8-2.3-2.6-3.4-6.5-3.4-11.7v-7.1c0-5.3,1.1-9.2,3.4-11.7,2.3-2.6,5.3-3.8,8.9-3.8s6.6,1.3,8.9,3.8c2.3,2.5,3.4,6.5,3.4,11.7v7.1c0,5.3-1.1,9.2-3.4,11.7-2.3,2.5-5.2,3.8-8.9,3.8ZM237.2,80.1c2.2,0,4-.9,5.3-2.7,1.3-1.8,2-4.6,2-8.4v-6.9c0-3.8-.7-6.6-2-8.4-1.3-1.8-3.1-2.7-5.3-2.7s-4,.9-5.4,2.7c-1.3,1.8-2,4.6-2,8.4v6.9c0,3.8.7,6.6,2,8.4,1.4,1.8,3.1,2.7,5.3,2.7ZM257.9,90.7v-46.4h5v46.4h-5Z"/>
        <path d="M270.9,84.1v-36.4h22.8v4.5h-17.8v27.4h4.5c2.7,0,5.6-.1,8.6-.4,3-.2,5.9-.6,8.7-1l.6,4.3c-2.6.5-5.5.9-8.8,1.2s-6.6.4-9.9.4h-8.6ZM273.1,67.8v-4.4h20.1v4.4h-20.1ZM295.6,66.7v-4.5h10.2v4.5h-10.2ZM303.2,90.7v-46.4h4.9v46.4h-4.9Z"/>
        <path d="M313.7,87.2v-4.6h43.6v4.6h-43.6ZM319.1,73.9v-15.5h28v-6.6h-28.2v-4.5h33.2v15.5h-28v6.7h28.9v4.4h-33.9ZM333.1,85.8v-13.8h5v13.8h-5Z"/>
        <path d="M369.7,66.1c4.1-2.3,7.1-4.6,9-7.1,1.9-2.4,2.9-5.1,2.9-8.1v-2.2h4.9v2.2c0,4-1.2,7.5-3.5,10.6-2.3,3.1-6,5.9-10.9,8.6l-2.4-4ZM371.5,50.9v-4.5h25v4.5h-25ZM388.3,91.2c-2.2,0-4.1-.4-5.8-1.2-1.7-.8-3-2-3.9-3.4-.9-1.5-1.4-3.1-1.4-5s.5-3.5,1.4-4.9c.9-1.4,2.2-2.6,3.9-3.4,1.7-.8,3.6-1.2,5.8-1.2h10.1c2.2,0,4.2.4,5.9,1.2,1.7.8,3,2,3.9,3.4.9,1.5,1.4,3.1,1.4,4.9s-.5,3.5-1.4,5c-.9,1.4-2.2,2.6-3.9,3.4-1.7.8-3.6,1.2-5.9,1.2h-10.1ZM395.8,69.3l-14.9-9.8,2.6-3.7,14.8,9.4-2.5,4.1ZM397.7,86.7c2.2,0,3.9-.5,5.1-1.4,1.2-.9,1.8-2.2,1.8-3.7s-.6-2.8-1.8-3.7c-1.2-.9-2.9-1.4-5.1-1.4h-8.5c-2.2,0-3.9.5-5.1,1.4-1.2.9-1.8,2.2-1.8,3.7s.6,2.8,1.8,3.7c1.2.9,2.9,1.4,5.1,1.4h8.5ZM394.9,58.6v-4.3h11.6v4.3h-11.6ZM403.9,69.6v-25.3h5v25.3h-5Z"/>
        <path d="M417,84.1v-20.6h17.3v-11.2h-17.3v-4.5h22.3v20.1h-17.3v11.8h4.6c2.6,0,5.5-.1,8.6-.4s6.1-.6,9-1.1l.6,4.4c-2.7.5-5.7.9-9.1,1.2-3.4.3-6.7.4-10,.4h-8.8ZM449.3,90.7v-46.4h5v46.4h-5Z"/>
        <path d="M459.9,55.6v-4.5h27.2v4.5h-27.2ZM473.5,84.4c-2.1,0-4.1-.5-5.8-1.4s-3.1-2.2-4.2-3.9c-1-1.7-1.5-3.6-1.5-5.8v-2.7c0-2.2.5-4.1,1.5-5.8,1-1.7,2.4-3,4.1-3.9s3.7-1.4,5.9-1.4,4.1.5,5.8,1.4c1.7.9,3.1,2.2,4.1,3.9,1,1.7,1.5,3.6,1.5,5.8v2.7c0,2.2-.5,4.1-1.5,5.8-1,1.7-2.4,3-4.1,3.9-1.7.9-3.7,1.4-5.8,1.4ZM473.5,79.9c1.2,0,2.3-.3,3.2-.8,1-.5,1.7-1.3,2.3-2.4.6-1,.8-2.2.8-3.6v-2.3c0-1.3-.3-2.5-.8-3.5-.6-1-1.3-1.8-2.3-2.3-1-.5-2.1-.8-3.2-.8s-2.3.3-3.3.8c-1,.5-1.8,1.3-2.3,2.3-.6,1-.8,2.2-.8,3.5v2.3c0,1.4.3,2.6.8,3.6.6,1,1.3,1.8,2.3,2.4,1,.5,2.1.8,3.3.8ZM470.9,53.6v-9.3h5v9.3h-5ZM491.9,90.7v-46.4h5v46.4h-5ZM495.2,66.3v-4.5h9v4.5h-9Z"/>
        <path d="M505.1,73.3v-4.6h43.6v4.6h-43.6ZM543.1,59.1v4.6h-32.2v-18.5h5v13.9h27.2ZM510.9,90.7v-13.5h5v8.8h28.2v4.7h-33.2Z"/>
        <path d="M560.6,53.1v-4.2h27.2v4.2h-27.2ZM574.3,74c-2.2,0-4.1-.3-5.9-1-1.8-.7-3.1-1.7-4.1-3-1-1.3-1.5-2.9-1.5-4.7v-.8c0-2.8,1.1-4.9,3.2-6.4,2.2-1.5,4.9-2.3,8.3-2.3s6.1.8,8.2,2.3c2.2,1.5,3.2,3.7,3.2,6.4v.8c0,2.7-1.1,4.9-3.2,6.4-2.2,1.5-4.9,2.3-8.2,2.3ZM574.3,69.8c1.9,0,3.5-.4,4.7-1.3,1.2-.9,1.9-2,1.9-3.4v-.6c0-1.4-.6-2.5-1.9-3.4-1.2-.8-2.8-1.2-4.7-1.2s-3.5.4-4.7,1.2c-1.2.8-1.9,2-1.9,3.4v.6c0,1.4.6,2.6,1.9,3.4,1.2.8,2.8,1.2,4.8,1.2ZM567.9,90.7v-12.9h5v8.3h27.2v4.6h-32.2ZM571.7,51.4v-7.7h5v7.7h-5ZM592.7,79.5v-35.2h5v35.2h-5ZM595.9,62.4v-4.5h9v4.5h-9Z"/>
        <path d="M616,55.6v-4.5h21.8v4.5h-21.8ZM627,84.4c-1.8,0-3.4-.4-4.8-1.4-1.4-.9-2.4-2.2-3.2-3.8-.8-1.7-1.2-3.6-1.2-5.8v-2.7c0-2.2.4-4.1,1.2-5.8.8-1.6,1.8-2.9,3.2-3.8,1.4-.9,3-1.4,4.8-1.4s3.3.5,4.7,1.4,2.4,2.2,3.2,3.8c.8,1.7,1.1,3.6,1.1,5.8v2.7c0,2.2-.4,4.1-1.1,5.8-.8,1.7-1.8,2.9-3.2,3.8-1.3.9-2.9,1.4-4.7,1.4ZM627,79.9c1.3,0,2.4-.6,3.2-1.9.8-1.2,1.2-2.9,1.2-5v-2.1c0-2.1-.4-3.8-1.2-5-.8-1.2-1.9-1.8-3.2-1.8s-2.4.6-3.2,1.8c-.8,1.2-1.2,2.9-1.2,5v2.1c0,2.1.4,3.8,1.2,5,.8,1.2,1.9,1.9,3.2,1.9ZM624.4,53.6v-9.3h5.1v9.3h-5.1ZM640.9,89.7v-44.8h4.8v44.8h-4.8ZM643.5,66.3v-4.5h10v4.5h-10ZM651.6,90.7v-46.4h4.8v46.4h-4.8Z"/>
      </g>
    </g>
  </g>
</svg>