<?xml version="1.0" encoding="UTF-8"?>
<svg id="_레이어_1" data-name="레이어_1" xmlns="http://www.w3.org/2000/svg" version="1.1" viewBox="0 0 373 104">
  <!-- Generator: Adobe Illustrator 29.0.0, SVG Export Plug-In . SVG Version: 2.1.0 Build 186)  -->
  <defs>
    <style>
      .st0 {
        fill: #fff;
      }
    </style>
  </defs>
  <rect width="373" height="104"/>
  <g>
    <polygon class="st0" points="70.5 21.7 70.5 51.9 49.8 21.7 27.4 21.7 27.4 81.6 49.7 81.6 49.7 51.3 70.4 81.6 92.8 81.6 92.8 21.7 70.5 21.7"/>
    <path class="st0" d="M332.2,59.2c7.9-2.2,13-7.9,13-17.1,0-15.4-12.3-20.4-28.4-20.4h-27.9v59.9h22.3v-18.7l13.3,18.7h25.6l-18-22.4ZM321.2,47c-1.3,1.1-3.8,1.6-5.9,1.6h-4.8v-11.8h4.7c2.3,0,4.8.5,6.1,1.6,1.2,1.1,1.8,2.5,1.8,4.4s-.6,3.2-1.9,4.2Z"/>
    <path class="st0" d="M234.6,21.7h45.2v15.6h-23.1v7.1h21.3v14.7h-21.3v6.9h23.8v15.6h-45.9V21.7Z"/>
    <path class="st0" d="M146.5,21.7h-25.4l-23.5,59.9h24.8l2.2-7.8h18.4l2.2,7.8h24.8l-23.5-59.9ZM128.2,59.9l5.3-19.8h.6l5.3,19.8h-11.1Z"/>
    <polygon class="st0" points="205.5 21.7 194.5 57.8 193.9 57.8 182.9 21.7 158.5 21.7 183.6 81.6 204.7 81.6 229.8 21.7 205.5 21.7"/>
  </g>
</svg>